<svg xmlns="http://www.w3.org/2000/svg" xmlns:xlink="http://www.w3.org/1999/xlink" width="194px" height="162px" viewBox="0 0 194 162" version="1.1">
    <!-- Generator: sketchtool 53 (72520) - https://sketchapp.com -->
    <title>BE5BB0E8-915A-4D90-B99D-D2E3406FA5B1</title>
    <desc>Created with sketchtool.</desc>
    <defs>
        <path d="M1.4199708,11.3111193 C-0.73365158,17.9718341 1.60667066,26.3877907 7.55740015,30.3834308 L7.55740015,30.3834308 C16.4926979,36.385437 31.5667398,32.6343474 35.0930006,22.0910642 L35.0930006,22.0910642 C37.351806,15.3383142 34.6301953,6.85924784 28.5926898,2.84651554 L28.5926898,2.84651554 C25.710675,0.930869747 22.2396353,0.02366618 18.7422998,0.02366618 L18.7422998,0.02366618 C11.3084897,0.02366618 3.74714517,4.11528575 1.4199708,11.3111193" id="path-1"/>
        <path d="M0,1.61587418 L0,49.2361727 C0,50.6969019 1.03868234,51.9498947 2.47311581,52.220741 L2.47311581,52.220741 L42.6661782,59.809696 C44.0348723,60.0687092 45.2996981,59.0208234 45.2996981,57.6297779 L45.2996981,57.6297779 L45.2996981,7.40488477 L0.855926844,0.876963448 C0.817797998,0.871704297 0.782298728,0.869074721 0.74548467,0.869074721 L0.74548467,0.869074721 C0.340530035,0.869074721 0,1.19645688 0,1.61587418" id="path-3"/>
        <linearGradient x1="67.1046382%" y1="37.1248655%" x2="-33.2268968%" y2="109.634071%" id="linearGradient-5">
            <stop stop-color="#D8E2F3" offset="0%"/>
            <stop stop-color="#AFC0E8" offset="100%"/>
        </linearGradient>
        <path d="M22.2527831,0.988720409 L0.596913651,7.40488477 L0.596913651,57.0867705 C0.596913651,58.6421645 2.15362238,59.7137165 3.60646288,59.1601909 L3.60646288,59.1601909 L21.101029,52.4981612 C22.2790789,52.0498186 23.0574333,50.9217306 23.0574333,49.6608492 L23.0574333,49.6608492 L23.0574333,1.59089321 C23.0574333,1.23327094 22.7655504,0.963739441 22.4315943,0.963739441 L22.4315943,0.963739441 C22.3724288,0.963739441 22.3119486,0.971628168 22.2527831,0.988720409" id="path-6"/>
        <linearGradient x1="41.647029%" y1="32.1657272%" x2="71.6899619%" y2="93.774649%" id="linearGradient-8">
            <stop stop-color="#D8E2F3" offset="0%"/>
            <stop stop-color="#AFC0E8" offset="100%"/>
        </linearGradient>
        <path d="M7.54293748,5.09123903 C1.31478778,10.5344604 -1.42654474,20.4900335 2.17991814,28.1552462 L2.17991814,28.1552462 C7.59158463,39.667528 25.840839,42.8808693 35.8227078,34.333434 L35.8227078,34.333434 C42.2138912,28.8586577 45.0196483,18.7282179 41.335613,10.9920066 L41.335613,10.9920066 C37.9921076,3.97103984 29.8693487,0.105563771 21.7912926,0.105563771 L21.7912926,0.105563771 C16.5952513,0.105563771 11.4176171,1.70434571 7.54293748,5.09123903" id="path-9"/>
        <path d="M10.8259626,0.111756961 C3.57753754,0.503563719 -1.28849202,8.83142951 1.68950229,15.3330551 L1.68950229,15.3330551 C3.56176009,19.4259894 8.50404735,22.7142737 13.3109115,22.4762971 L13.3109115,22.4762971 C20.5290964,22.11736 25.4792724,13.902566 22.5735914,7.38253337 L22.5735914,7.38253337 C20.778906,3.35796799 16.0496144,0.0972942956 11.3610812,0.0972942956 L11.3610812,0.0972942956 C11.1822701,0.0972942956 11.0034589,0.102553447 10.8259626,0.111756961" id="path-11"/>
        <path d="M44.538436,0.876963448 L0.0933499322,7.40488477 L0.0933499322,57.6297779 C0.0933499322,59.0208234 1.35949056,60.0687092 2.72818464,59.809696 L2.72818464,59.809696 L42.921247,52.220741 C44.3556805,51.9498947 45.3943628,50.6969019 45.3943628,49.2361727 L45.3943628,49.2361727 L45.3943628,1.61587418 C45.3943628,1.19645688 45.0538328,0.869074721 44.6488782,0.869074721 L44.6488782,0.869074721 C44.6120641,0.869074721 44.57525,0.871704297 44.538436,0.876963448" id="path-13"/>
        <linearGradient x1="32.8952496%" y1="37.1248655%" x2="133.229697%" y2="109.634071%" id="linearGradient-15">
            <stop stop-color="#D8E2F3" offset="0%"/>
            <stop stop-color="#AFC0E8" offset="100%"/>
        </linearGradient>
        <path d="M1.30032511,1.59089321 L1.30032511,49.6608492 C1.30032511,50.9217306 2.07867948,52.0498186 3.25672933,52.4981612 L3.25672933,52.4981612 L20.7512955,59.1601909 C22.2028212,59.7137165 23.7595299,58.6421645 23.7595299,57.0867705 L23.7595299,57.0867705 L23.7595299,7.40488477 L2.10366044,0.988720409 C2.04449499,0.971628168 1.98401476,0.963739441 1.92616409,0.963739441 L1.92616409,0.963739441 C1.592208,0.963739441 1.30032511,1.23327094 1.30032511,1.59089321" id="path-16"/>
        <linearGradient x1="58.3526752%" y1="32.1657272%" x2="28.3115009%" y2="93.774649%" id="linearGradient-18">
            <stop stop-color="#D8E2F3" offset="0%"/>
            <stop stop-color="#AFC0E8" offset="100%"/>
        </linearGradient>
        <linearGradient x1="79.1986691%" y1="17.4501688%" x2="37.1735593%" y2="100%" id="linearGradient-19">
            <stop stop-color="#E9C8FF" offset="0%"/>
            <stop stop-color="#72A4FF" offset="51.6708815%"/>
            <stop stop-color="#ADDBFF" offset="100%"/>
        </linearGradient>
        <linearGradient x1="75.8756022%" y1="17.4501688%" x2="38.6333218%" y2="100%" id="linearGradient-20">
            <stop stop-color="#E9C8FF" offset="0%"/>
            <stop stop-color="#72A4FF" offset="51.6708815%"/>
            <stop stop-color="#ADDBFF" offset="100%"/>
        </linearGradient>
    </defs>
    <g id="Page-1" stroke="none" stroke-width="1" fill="none" fill-rule="evenodd">
        <g id="NN-4.3" transform="translate(-623.000000, -363.000000)">
            <g id="Group-6" transform="translate(463.000000, 195.000000)">
                <g id="Group-38" transform="translate(160.000000, 168.000000)">
                    <path d="M103.686418,32.0471255 C98.6780888,29.6452855 94.3292886,25.866713 89.0363104,24.1867273 C81.8159067,21.8927933 73.9415551,23.8406837 66.8904523,26.6108927 C36.0283894,38.7400918 12.3178935,67.5426374 6.34492107,100.161895 C3.49936389,115.706879 4.78400412,132.799756 13.9429959,145.677786 C23.102918,158.556747 41.5306681,165.450641 55.5658975,158.186517 C70.752745,150.324258 79.208487,128.350492 96.277179,129.390483 C108.328239,130.12443 116.731889,142.83409 128.666671,144.649888 C152.806,148.322415 162.153828,114.663167 173.13699,99.873525 C183.44946,85.9871316 193.204726,72.8598014 193.947045,54.6646074 C196.131213,1.17296962 130.209913,44.7716684 103.686418,32.0471255" id="Fill-1" fill-opacity="0.68" fill="#F0F0F8"/>
                    <g id="Group-8" transform="translate(0.000000, 68.340378)">
                        <path d="M65.803945,56.7834879 L48.0661431,63.5401823 C46.2569951,64.2291311 44.2927021,64.4039979 42.3902042,64.043746 L2.47324729,56.5060677 L3.49878176,50.6841874 L65.803945,56.7834879 Z" id="Fill-4" fill="#D2D6D9"/>
                        <path d="M0.927451299,4.81084742 L19.2082606,0.358976007 C20.5414554,0.034223426 21.9219825,-0.0538673551 23.2854175,0.0973332393 L66.6786733,4.91603045 C67.2953088,4.9857142 67.7594288,5.50505537 67.7594288,6.12432041 L67.7594288,10.8233719 L45.2989092,20.8670358 L0.000525915111,11.1625872 L0.000525915111,5.99021206 C0.000525915111,5.43142725 0.383129159,4.94364099 0.927451299,4.81084742" id="Fill-6" fill="#BBCCF1"/>
                    </g>
                    <g id="Group-11" transform="translate(18.407029, 56.848383)">
                        <mask id="mask-2" fill="white">
                            <use xlink:href="#path-1"/>
                        </mask>
                        <g id="Clip-10"/>
                    </g>
                    <g id="Group-14" transform="translate(0.000000, 72.625837)">
                        <mask id="mask-4" fill="white">
                            <use xlink:href="#path-3"/>
                        </mask>
                        <g id="Clip-13"/>
                        <path d="M0,1.61587418 L0,49.2361727 C0,50.6969019 1.03868234,51.9498947 2.47311581,52.220741 L2.47311581,52.220741 L42.6661782,59.809696 C44.0348723,60.0687092 45.2996981,59.0208234 45.2996981,57.6297779 L45.2996981,57.6297779 L45.2996981,7.40488477 L0.855926844,0.876963448 C0.817797998,0.871704297 0.782298728,0.869074721 0.74548467,0.869074721 L0.74548467,0.869074721 C0.340530035,0.869074721 0,1.19645688 0,1.61587418" id="Fill-12" fill="url(#linearGradient-5)" mask="url(#mask-4)"/>
                    </g>
                    <g id="Group-17" transform="translate(44.702784, 72.625837)">
                        <mask id="mask-7" fill="white">
                            <use xlink:href="#path-6"/>
                        </mask>
                        <g id="Clip-16"/>
                        <path d="M22.2527831,0.988720409 L0.596913651,7.40488477 L0.596913651,57.0867705 C0.596913651,58.6421645 2.15362238,59.7137165 3.60646288,59.1601909 L3.60646288,59.1601909 L21.101029,52.4981612 C22.2790789,52.0498186 23.0574333,50.9217306 23.0574333,49.6608492 L23.0574333,49.6608492 L23.0574333,1.59089321 C23.0574333,1.23327094 22.7655504,0.963739441 22.4315943,0.963739441 L22.4315943,0.963739441 C22.3724288,0.963739441 22.3119486,0.971628168 22.2527831,0.988720409" id="Fill-15" fill="url(#linearGradient-8)" mask="url(#mask-7)"/>
                    </g>
                    <g id="Group-22" transform="translate(105.183022, 67.366686)">
                        <path d="M3.25659785,57.7571808 L20.9943998,64.5138752 C22.8035477,65.202824 24.7678407,65.3776908 26.6703386,65.0174389 L66.5872955,57.4797606 L65.5617611,51.6578803 L3.25659785,57.7571808 Z" id="Fill-18" fill="#D2D6D9"/>
                        <path d="M68.1330915,5.78454031 L49.8522823,1.33266889 C48.5177727,1.00791631 47.1385603,0.91982553 45.7738106,1.07102612 L2.38055475,5.88972333 C1.76523407,5.95940708 1.30111399,6.47874826 1.30111399,7.0980133 L1.30111399,11.7970648 L23.7603188,21.8407287 L69.0600169,12.1362801 L69.0600169,6.96390495 C69.0600169,6.40512014 68.6774137,5.91733387 68.1330915,5.78454031" id="Fill-20" fill="#BBCCF1"/>
                    </g>
                    <g id="Group-25" transform="translate(118.330900, 36.748842)">
                        <mask id="mask-10" fill="white">
                            <use xlink:href="#path-9"/>
                        </mask>
                        <g id="Clip-24"/>
                    </g>
                    <g id="Group-28" transform="translate(90.720357, 8.201236)">
                        <mask id="mask-12" fill="white">
                            <use xlink:href="#path-11"/>
                        </mask>
                        <g id="Clip-27"/>
                    </g>
                    <g id="Group-31" transform="translate(128.849202, 72.625837)">
                        <mask id="mask-14" fill="white">
                            <use xlink:href="#path-13"/>
                        </mask>
                        <g id="Clip-30"/>
                        <path d="M44.538436,0.876963448 L0.0933499322,7.40488477 L0.0933499322,57.6297779 C0.0933499322,59.0208234 1.35949056,60.0687092 2.72818464,59.809696 L2.72818464,59.809696 L42.921247,52.220741 C44.3556805,51.9498947 45.3943628,50.6969019 45.3943628,49.2361727 L45.3943628,49.2361727 L45.3943628,1.61587418 C45.3943628,1.19645688 45.0538328,0.869074721 44.6488782,0.869074721 L44.6488782,0.869074721 C44.6120641,0.869074721 44.57525,0.871704297 44.538436,0.876963448" id="Fill-29" fill="url(#linearGradient-15)" mask="url(#mask-14)"/>
                    </g>
                    <g id="Group-34" transform="translate(105.183022, 72.625837)">
                        <mask id="mask-17" fill="white">
                            <use xlink:href="#path-16"/>
                        </mask>
                        <g id="Clip-33"/>
                        <path d="M1.30032511,1.59089321 L1.30032511,49.6608492 C1.30032511,50.9217306 2.07867948,52.0498186 3.25672933,52.4981612 L3.25672933,52.4981612 L20.7512955,59.1601909 C22.2028212,59.7137165 23.7595299,58.6421645 23.7595299,57.0867705 L23.7595299,57.0867705 L23.7595299,7.40488477 L2.10366044,0.988720409 C2.04449499,0.971628168 1.98401476,0.963739441 1.92616409,0.963739441 L1.92616409,0.963739441 C1.592208,0.963739441 1.30032511,1.23327094 1.30032511,1.59089321" id="Fill-32" fill="url(#linearGradient-18)" mask="url(#mask-17)"/>
                    </g>
                    <g id="Group-2" transform="translate(71.216783, 0.000000)">
                        <polygon id="Fill-1" fill="url(#linearGradient-19)" transform="translate(25.237445, 47.483735) rotate(-2.000000) translate(-25.237445, -47.483735) " points="12.2142678 35.0116973 19.3129561 61.7075009 38.2606216 33.2599689"/>
                        <polygon id="Fill-2" fill="url(#linearGradient-20)" points="17.9557438 0.326876605 0.546933272 30.2248975 26.3165812 27.2671795"/>
                    </g>
                </g>
            </g>
        </g>
    </g>
</svg>