<svg xmlns="http://www.w3.org/2000/svg" xmlns:xlink="http://www.w3.org/1999/xlink" width="217px" height="162px" viewBox="0 0 217 162" version="1.1">
    <!-- Generator: sketchtool 53 (72520) - https://sketchapp.com -->
    <title>28BA5B65-8158-4AFF-8247-A9CA9B8113F0</title>
    <desc>Created with sketchtool.</desc>
    <defs>
        <path d="M0.117424242,7.73966667 C0.117424242,7.73966667 62.5288788,19.8259091 87.8267576,13.3309394 L87.8267576,13.3309394 C87.8267576,13.3309394 97.933697,13.573303 99.5466364,2.3409697 L99.5466364,2.3409697 L23.2133636,0.851090909 L0.117424242,7.73966667 Z" id="path-1"/>
        <linearGradient x1="30.5388674%" y1="47.997543%" x2="106.781714%" y2="54.1255311%" id="linearGradient-3">
            <stop stop-color="#AFC0E8" offset="0%"/>
            <stop stop-color="#D8E2F3" offset="100%"/>
        </linearGradient>
        <path d="M2.16906061,57.9117576 C38.0360606,57.9117576 90.9474242,60.1212121 90.9474242,60.1212121 L90.9474242,60.1212121 C96.6345152,30.4711212 90.4194848,1.09909091 90.4194848,1.09909091 L90.4194848,1.09909091 C65.0492727,5.47384848 2.93560606,0.224515152 2.93560606,0.224515152 L2.93560606,0.224515152 C-3.18736364,19.4708182 2.16906061,57.9117576 2.16906061,57.9117576" id="path-4"/>
        <linearGradient x1="15.0688759%" y1="37.2446171%" x2="138.37014%" y2="81.1609181%" id="linearGradient-6">
            <stop stop-color="#D8E2F3" offset="0%"/>
            <stop stop-color="#AFC0E8" offset="100%"/>
        </linearGradient>
        <path d="M0.237666667,6.73545455 C4.34751515,23.7140606 0.765606061,65.7575758 0.765606061,65.7575758 L0.765606061,65.7575758 L10.7560606,58.6219394 C18.6056364,35.0722727 12.183,0.462181818 12.183,0.462181818 L12.183,0.462181818 L0.237666667,6.73545455 Z" id="path-7"/>
        <linearGradient x1="45.7364732%" y1="40.1113109%" x2="58.3587967%" y2="71.8368509%" id="linearGradient-9">
            <stop stop-color="#D8E2F3" offset="0%"/>
            <stop stop-color="#AFC0E8" offset="100%"/>
        </linearGradient>
        <path d="M18.3322727,2.51193939 C7.96793939,5.91066667 1.98775758,13.5028485 1.92387879,23.3364242 L1.92387879,23.3364242 C1.77545455,46.3421818 0.526060606,58.4171515 0.513848485,58.5364545 L0.513848485,58.5364545 C0.303424242,60.5270303 1.75009091,62.3184545 3.73784848,62.5298182 L3.73784848,62.5298182 C3.86842424,62.5439091 3.999,62.5504848 4.12675758,62.5504848 L4.12675758,62.5504848 C5.98393939,62.5504848 7.53393939,61.1573636 7.73309091,59.307697 L7.73309091,59.307697 C7.78663636,58.8060606 9.03133333,46.7883939 9.18257576,23.3852727 L9.18257576,23.3852727 C9.24081818,14.4629091 16.3576667,10.7983333 20.5952727,9.40990909 L20.5952727,9.40990909 C29.2395758,6.56918182 39.684697,8.3850303 43.4018788,13.3741515 L43.4018788,13.3741515 C46.4163939,17.4163636 47.921303,25.1447576 47.7578485,35.7279697 L47.7578485,35.7279697 C47.6244545,44.2999394 46.4079394,53.1274242 45.4056061,58.0808485 L45.4056061,58.0808485 C45.0101212,60.0413636 46.2839394,61.9605455 48.2472727,62.3579091 L48.2472727,62.3579091 C50.2124848,62.7515152 52.1250909,61.473 52.5215152,59.5190606 L52.5215152,59.5190606 C52.7065758,58.5975152 54.3486364,50.2124848 54.8869091,40.0557576 L54.8869091,40.0557576 C55.6581515,25.5477576 53.7521212,15.1101515 49.2223636,9.03509091 L49.2223636,9.03509091 C45.3088485,3.78481818 37.4940303,0.805060606 29.1381212,0.805060606 L29.1381212,0.805060606 C25.5468182,0.805060606 21.8568788,1.35460606 18.3322727,2.51193939" id="path-10"/>
        <linearGradient x1="58.0160706%" y1="4.57191772%" x2="45.2238983%" y2="91.74145%" id="linearGradient-12">
            <stop stop-color="#D8E2F3" offset="0%"/>
            <stop stop-color="#AFC0E8" offset="100%"/>
        </linearGradient>
        <path d="M3.43724242,0.592757576 C-3.937,5.28878788 5.10936364,11.3206364 5.10936364,11.3206364 L5.10936364,11.3206364 L1.62515152,20.367 L12.4836061,20.7051818 L11.5442121,17.7827273 L4.42360606,17.5676061 L7.91909091,8.52124242 C7.91909091,8.52124242 1.84966667,4.48184848 3.70121212,0.441515152 L3.70121212,0.441515152 C3.61666667,0.479090909 3.52272727,0.536393939 3.43724242,0.592757576" id="path-13"/>
        <linearGradient x1="33.5050185%" y1="69.0490413%" x2="65.9561228%" y2="39.7218562%" id="linearGradient-15">
            <stop stop-color="#AFC0E8" offset="0%"/>
            <stop stop-color="#D8E2F3" offset="100%"/>
        </linearGradient>
        <path d="M0.883030303,1.37151515 C0.873636364,1.37151515 0.873636364,1.37151515 0.883030303,1.38090909 L0.883030303,1.38090909 C-0.968515152,5.42124242 5.10090909,9.46063636 5.10090909,9.46063636 L5.10090909,9.46063636 L1.60542424,18.507 L8.7260303,18.7221212 L6.6499697,12.2600303 C11.8701818,7.86554545 9.44090909,0.318454545 4.33342424,0.319393939 L4.33342424,0.319393939 C3.28224242,0.319393939 2.11739394,0.639727273 0.883030303,1.37151515" id="path-16"/>
        <linearGradient x1="58.5562241%" y1="42.8444645%" x2="90.4965946%" y2="8.18283053%" id="linearGradient-18">
            <stop stop-color="#AFC0E8" offset="0%"/>
            <stop stop-color="#D8E2F3" offset="100%"/>
        </linearGradient>
        <path d="M0.883030303,1.37151515 C0.873636364,1.37151515 0.873636364,1.37151515 0.883030303,1.38090909 L0.883030303,1.38090909 C-4.4408921e-16,3.30760606 0.920606061,5.23336364 2.11363636,6.71760606 L2.11363636,6.71760606 C3.43818182,8.35121212 5.10090909,9.46063636 5.10090909,9.46063636 L5.10090909,9.46063636 L5.0060303,9.71427273 L1.60542424,18.507 L8.7260303,18.7221212 L6.6499697,12.2600303 C7.63633333,11.4239697 8.35121212,10.4845758 8.82090909,9.49821212 L8.82090909,9.49821212 C9.41272727,8.28639394 9.62878788,7.00881818 9.53484848,5.80545455 L9.53484848,5.80545455 C9.33381818,2.83415152 7.28030303,0.318454545 4.33248485,0.318454545 L4.33248485,0.318454545 C3.28224242,0.318454545 2.11739394,0.638787879 0.883030303,1.37151515" id="path-19"/>
        <linearGradient x1="58.5483524%" y1="42.8566117%" x2="90.4521092%" y2="8.20891226%" id="linearGradient-21">
            <stop stop-color="#AFC0E8" offset="0%"/>
            <stop stop-color="#D8E2F3" offset="100%"/>
        </linearGradient>
        <filter x="-24.2%" y="-39.0%" width="148.5%" height="178.0%" filterUnits="objectBoundingBox" id="filter-22">
            <feOffset dx="0" dy="2" in="SourceAlpha" result="shadowOffsetOuter1"/>
            <feGaussianBlur stdDeviation="3" in="shadowOffsetOuter1" result="shadowBlurOuter1"/>
            <feColorMatrix values="0 0 0 0 0.431372549   0 0 0 0 0.478431373   0 0 0 0 0.678431373  0 0 0 0.23 0" type="matrix" in="shadowBlurOuter1" result="shadowMatrixOuter1"/>
            <feMerge>
                <feMergeNode in="shadowMatrixOuter1"/>
                <feMergeNode in="SourceGraphic"/>
            </feMerge>
        </filter>
        <linearGradient x1="84.8303932%" y1="23.9421019%" x2="34.699646%" y2="90.0277008%" id="linearGradient-23">
            <stop stop-color="#E9C8FF" offset="0%"/>
            <stop stop-color="#72A4FF" offset="51.6708815%"/>
            <stop stop-color="#ADDBFF" offset="100%"/>
        </linearGradient>
        <linearGradient x1="26.9443185%" y1="73.0933402%" x2="88.02958%" y2="21.7203726%" id="linearGradient-24">
            <stop stop-color="#E9C8FF" offset="0%"/>
            <stop stop-color="#72A4FF" offset="51.6708815%"/>
            <stop stop-color="#ADDBFF" offset="100%"/>
        </linearGradient>
    </defs>
    <g id="Page-1" stroke="none" stroke-width="1" fill="none" fill-rule="evenodd">
        <g id="NN-4.2" transform="translate(-609.000000, -363.000000)">
            <g id="Group-6" transform="translate(463.000000, 195.000000)">
                <g id="Group-7" transform="translate(151.000000, 168.000000)">
                    <g id="Group-3" transform="translate(23.000000, 23.000000)" fill="#F0F0F8" fill-opacity="0.68">
                        <path d="M98.6864183,9.04712548 C93.6780888,6.64528546 89.3292886,2.86671296 84.0363104,1.18672726 C76.8159067,-1.10720671 68.9415551,0.840683693 61.8904523,3.61089268 C31.0283894,15.7400918 7.31789349,44.5426374 1.34492107,77.1618947 C-1.50063611,92.7068786 -0.215995883,109.799756 8.94299594,122.677786 C18.102918,135.556747 36.5306681,142.450641 50.5658975,135.186517 C65.752745,127.324258 74.208487,105.350492 91.277179,106.390483 C103.328239,107.12443 111.731889,119.83409 123.666671,121.649888 C147.806,125.322415 157.153828,91.6631666 168.13699,76.873525 C178.44946,62.9871316 188.204726,49.8598014 188.947045,31.6646074 C191.131213,-21.8270304 125.209913,21.7716684 98.6864183,9.04712548" id="Fill-1"/>
                    </g>
                    <g id="Group-22" transform="translate(41.000000, 0.000000)">
                        <g id="Group-3" transform="translate(2.818182, 55.559515)">
                            <mask id="mask-2" fill="white">
                                <use xlink:href="#path-1"/>
                            </mask>
                            <g id="Clip-2"/>
                            <path d="M0.117424242,7.73966667 C0.117424242,7.73966667 62.5288788,19.8259091 87.8267576,13.3309394 L87.8267576,13.3309394 C87.8267576,13.3309394 97.933697,13.573303 99.5466364,2.3409697 L99.5466364,2.3409697 L23.2133636,0.851090909 L0.117424242,7.73966667 Z" id="Fill-1" fill="url(#linearGradient-3)" mask="url(#mask-2)"/>
                        </g>
                        <g id="Group-6" transform="translate(0.000000, 63.074667)">
                            <mask id="mask-5" fill="white">
                                <use xlink:href="#path-4"/>
                            </mask>
                            <g id="Clip-5"/>
                            <path d="M2.16906061,57.9117576 C38.0360606,57.9117576 90.9474242,60.1212121 90.9474242,60.1212121 L90.9474242,60.1212121 C96.6345152,30.4711212 90.4194848,1.09909091 90.4194848,1.09909091 L90.4194848,1.09909091 C65.0492727,5.47384848 2.93560606,0.224515152 2.93560606,0.224515152 L2.93560606,0.224515152 C-3.18736364,19.4708182 2.16906061,57.9117576 2.16906061,57.9117576" id="Fill-4" fill="url(#linearGradient-6)" mask="url(#mask-5)"/>
                        </g>
                        <g id="Group-9" transform="translate(90.181818, 57.438303)">
                            <mask id="mask-8" fill="white">
                                <use xlink:href="#path-7"/>
                            </mask>
                            <g id="Clip-8"/>
                            <path d="M0.237666667,6.73545455 C4.34751515,23.7140606 0.765606061,65.7575758 0.765606061,65.7575758 L0.765606061,65.7575758 L10.7560606,58.6219394 C18.6056364,35.0722727 12.183,0.462181818 12.183,0.462181818 L12.183,0.462181818 L0.237666667,6.73545455 Z" id="Fill-7" fill="url(#linearGradient-9)" mask="url(#mask-8)"/>
                        </g>
                        <g id="Group-12" transform="translate(29.121212, 0.135273)">
                            <mask id="mask-11" fill="white">
                                <use xlink:href="#path-10"/>
                            </mask>
                            <g id="Clip-11"/>
                            <path d="M18.3322727,2.51193939 C7.96793939,5.91066667 1.98775758,13.5028485 1.92387879,23.3364242 L1.92387879,23.3364242 C1.77545455,46.3421818 0.526060606,58.4171515 0.513848485,58.5364545 L0.513848485,58.5364545 C0.303424242,60.5270303 1.75009091,62.3184545 3.73784848,62.5298182 L3.73784848,62.5298182 C3.86842424,62.5439091 3.999,62.5504848 4.12675758,62.5504848 L4.12675758,62.5504848 C5.98393939,62.5504848 7.53393939,61.1573636 7.73309091,59.307697 L7.73309091,59.307697 C7.78663636,58.8060606 9.03133333,46.7883939 9.18257576,23.3852727 L9.18257576,23.3852727 C9.24081818,14.4629091 16.3576667,10.7983333 20.5952727,9.40990909 L20.5952727,9.40990909 C29.2395758,6.56918182 39.684697,8.3850303 43.4018788,13.3741515 L43.4018788,13.3741515 C46.4163939,17.4163636 47.921303,25.1447576 47.7578485,35.7279697 L47.7578485,35.7279697 C47.6244545,44.2999394 46.4079394,53.1274242 45.4056061,58.0808485 L45.4056061,58.0808485 C45.0101212,60.0413636 46.2839394,61.9605455 48.2472727,62.3579091 L48.2472727,62.3579091 C50.2124848,62.7515152 52.1250909,61.473 52.5215152,59.5190606 L52.5215152,59.5190606 C52.7065758,58.5975152 54.3486364,50.2124848 54.8869091,40.0557576 L54.8869091,40.0557576 C55.6581515,25.5477576 53.7521212,15.1101515 49.2223636,9.03509091 L49.2223636,9.03509091 C45.3088485,3.78481818 37.4940303,0.805060606 29.1381212,0.805060606 L29.1381212,0.805060606 C25.5468182,0.805060606 21.8568788,1.35460606 18.3322727,2.51193939" id="Fill-10" fill="url(#linearGradient-12)" mask="url(#mask-11)"/>
                        </g>
                        <g id="Group-15" transform="translate(36.636364, 83.741333)">
                            <mask id="mask-14" fill="white">
                                <use xlink:href="#path-13"/>
                            </mask>
                            <g id="Clip-14"/>
                            <path d="M3.43724242,0.592757576 C-3.937,5.28878788 5.10936364,11.3206364 5.10936364,11.3206364 L5.10936364,11.3206364 L1.62515152,20.367 L12.4836061,20.7051818 L11.5442121,17.7827273 L4.42360606,17.5676061 L7.91909091,8.52124242 C7.91909091,8.52124242 1.84966667,4.48184848 3.70121212,0.441515152 L3.70121212,0.441515152 C3.61666667,0.479090909 3.52272727,0.536393939 3.43724242,0.592757576" id="Fill-13" fill="url(#linearGradient-15)" mask="url(#mask-14)"/>
                        </g>
                        <g id="Group-18" transform="translate(39.454545, 82.801939)">
                            <mask id="mask-17" fill="white">
                                <use xlink:href="#path-16"/>
                            </mask>
                            <g id="Clip-17"/>
                            <path d="M0.883030303,1.37151515 C0.873636364,1.37151515 0.873636364,1.37151515 0.883030303,1.38090909 L0.883030303,1.38090909 C-0.968515152,5.42124242 5.10090909,9.46063636 5.10090909,9.46063636 L5.10090909,9.46063636 L1.60542424,18.507 L8.7260303,18.7221212 L6.6499697,12.2600303 C11.8701818,7.86554545 9.44090909,0.318454545 4.33342424,0.319393939 L4.33342424,0.319393939 C3.28224242,0.319393939 2.11739394,0.639727273 0.883030303,1.37151515" id="Fill-16" fill="url(#linearGradient-18)" mask="url(#mask-17)"/>
                        </g>
                        <g id="Group-21" transform="translate(39.454545, 82.801939)">
                            <mask id="mask-20" fill="white">
                                <use xlink:href="#path-19"/>
                            </mask>
                            <g id="Clip-20"/>
                            <path d="M0.883030303,1.37151515 C0.873636364,1.37151515 0.873636364,1.37151515 0.883030303,1.38090909 L0.883030303,1.38090909 C-4.4408921e-16,3.30760606 0.920606061,5.23336364 2.11363636,6.71760606 L2.11363636,6.71760606 C3.43818182,8.35121212 5.10090909,9.46063636 5.10090909,9.46063636 L5.10090909,9.46063636 L5.0060303,9.71427273 L1.60542424,18.507 L8.7260303,18.7221212 L6.6499697,12.2600303 C7.63633333,11.4239697 8.35121212,10.4845758 8.82090909,9.49821212 L8.82090909,9.49821212 C9.41272727,8.28639394 9.62878788,7.00881818 9.53484848,5.80545455 L9.53484848,5.80545455 C9.33381818,2.83415152 7.28030303,0.318454545 4.33248485,0.318454545 L4.33248485,0.318454545 C3.28224242,0.318454545 2.11739394,0.638787879 0.883030303,1.37151515" id="Fill-19" fill="url(#linearGradient-21)" mask="url(#mask-20)"/>
                        </g>
                    </g>
                    <g id="Group-9" filter="url(#filter-22)" transform="translate(0.000000, 27.852459)" fill-rule="nonzero">
                        <polygon id="Path-2" fill="url(#linearGradient-23)" points="28.5 40.7213115 28.5 15.2213115 0 27.9713115"/>
                        <polygon id="Path-2-Copy" fill="url(#linearGradient-24)" transform="translate(51.250000, 12.971311) scale(-1, 1) translate(-51.250000, -12.971311) " points="65.5 25.7213115 65.5 0.221311475 37 12.9713115"/>
                    </g>
                </g>
            </g>
        </g>
    </g>
</svg>