<svg xmlns="http://www.w3.org/2000/svg" xmlns:xlink="http://www.w3.org/1999/xlink" width="209" height="181" viewBox="0 0 209 181">
    <defs>
        <path id="a" d="M1.515 12.07c-2.298 7.109.2 16.09 6.55 20.354 9.535 6.405 25.622 2.402 29.385-8.85 2.41-7.206-.494-16.254-6.937-20.536C27.438.993 23.733.025 20.001.025 12.068.025 4 4.392 1.515 12.071"/>
        <path id="b" d="M0 1.724v50.82a3.24 3.24 0 0 0 2.64 3.184l42.892 8.099a2.368 2.368 0 0 0 2.81-2.327V7.902L.913.936A.796.796 0 0 0 0 1.725"/>
        <linearGradient id="c" x1="78.996%" x2="-91.086%" y1="37.125%" y2="109.634%">
            <stop offset="0%" stop-color="#D8E2F3"/>
            <stop offset="100%" stop-color="#AFC0E8"/>
        </linearGradient>
        <path id="e" d="M23.747 1.055L.637 7.902v53.019a2.368 2.368 0 0 0 3.212 2.213l18.67-7.11a3.239 3.239 0 0 0 2.087-3.028V1.698a.669.669 0 0 0-.859-.643"/>
        <linearGradient id="f" x1="-6.363%" x2="196.357%" y1="32.166%" y2="93.775%">
            <stop offset="0%" stop-color="#D8E2F3"/>
            <stop offset="100%" stop-color="#AFC0E8"/>
        </linearGradient>
        <path id="h" d="M8.05 5.433c-6.647 5.809-9.572 16.433-5.724 24.613 5.775 12.286 25.25 15.715 35.903 6.593 6.82-5.842 9.814-16.653 5.883-24.909C40.544 4.238 31.875.113 23.255.113c-5.545 0-11.07 1.706-15.205 5.32"/>
        <path id="i" d="M11.553.12C3.818.536-1.375 9.424 1.803 16.362c1.998 4.368 7.272 7.877 12.402 7.623 7.703-.383 12.986-9.15 9.885-16.108C22.175 3.584 17.128.104 12.124.104c-.19 0-.382.005-.57.015"/>
        <path id="j" d="M47.53.936L.1 7.902V61.5a2.37 2.37 0 0 0 2.811 2.327l42.893-8.099a3.24 3.24 0 0 0 2.64-3.185V1.724a.796.796 0 0 0-.914-.788"/>
        <linearGradient id="k" x1="21.006%" x2="191.083%" y1="37.125%" y2="109.634%">
            <stop offset="0%" stop-color="#D8E2F3"/>
            <stop offset="100%" stop-color="#AFC0E8"/>
        </linearGradient>
        <path id="m" d="M1.388 1.698v51.298c0 1.346.83 2.55 2.087 3.028l18.67 7.11a2.367 2.367 0 0 0 3.21-2.213V7.902L2.245 1.055a.669.669 0 0 0-.857.643"/>
        <linearGradient id="n" x1="106.368%" x2="-96.364%" y1="32.166%" y2="93.775%">
            <stop offset="0%" stop-color="#D8E2F3"/>
            <stop offset="100%" stop-color="#AFC0E8"/>
        </linearGradient>
        <linearGradient id="p" x1="84.83%" x2="34.7%" y1="17.45%" y2="100%">
            <stop offset="0%" stop-color="#E9C8FF"/>
            <stop offset="51.671%" stop-color="#72A4FF"/>
            <stop offset="100%" stop-color="#ADDBFF"/>
        </linearGradient>
    </defs>
    <g fill="none" fill-rule="evenodd">
        <path fill="#F0F0F8" d="M201.37 79.044c-.025-10.536 1.429-26.073-4.524-35.323-5.102-7.93-17.465-13.335-26.713-14.285-21.315-2.192-37.187 5.458-49.797 22.592-11.678 15.867-19.367 25.945-37.596 34.243-17.557 7.993-34.756 5.684-52.214 11.164-15.95 5.01-25.217 24.254-26.3 39.914-1.901 27.5 17.986 36.131 41.89 41.215 14.196 3.02 27.761 3.063 40.699-2.576 13.141-5.73 24.063-11.095 37.996-7.795 20 4.737 34.472 18.722 57.19 9.717 16.669-6.609 28.918-26.262 25.922-43.977-2.562-15.155-13.42-31.375-6.552-54.89"/>
        <path fill="#D2D6D9" d="M70.224 162.528l-18.93 7.21c-1.93.735-4.026.922-6.057.538L2.64 162.232l1.095-6.213 66.49 6.509z"/>
        <path fill="#BBCCF1" d="M.99 107.064l19.508-4.75a12.545 12.545 0 0 1 4.351-.28l46.308 5.143a1.297 1.297 0 0 1 1.153 1.29v5.014l-23.969 10.718-48.34-10.356v-5.52c0-.596.408-1.117.989-1.259"/>
        <g transform="translate(0 106.504)">
            <mask id="d" fill="#fff">
                <use xlink:href="#b"/>
            </mask>
            <path fill="url(#c)" d="M0 1.724v50.82a3.24 3.24 0 0 0 2.64 3.184l42.892 8.099a2.368 2.368 0 0 0 2.81-2.327V7.902L.913.936A.796.796 0 0 0 0 1.725" mask="url(#d)"/>
        </g>
        <g transform="translate(47.705 106.504)">
            <mask id="g" fill="#fff">
                <use xlink:href="#e"/>
            </mask>
            <path fill="url(#f)" d="M23.747 1.055L.637 7.902v53.019a2.368 2.368 0 0 0 3.212 2.213l18.67-7.11a3.239 3.239 0 0 0 2.087-3.028V1.698a.669.669 0 0 0-.859-.643" mask="url(#g)"/>
        </g>
        <path fill="#D2D6D9" d="M115.723 162.528l18.929 7.21c1.93.735 4.027.922 6.057.538l42.598-8.044-1.094-6.213-66.49 6.509z"/>
        <path fill="#BBCCF1" d="M184.957 107.064l-19.509-4.75a12.553 12.553 0 0 0-4.352-.28l-46.308 5.143a1.297 1.297 0 0 0-1.152 1.29v5.014l23.968 10.718 48.342-10.356v-5.52c0-.596-.408-1.117-.99-1.259"/>
        <g transform="translate(137.503 106.504)">
            <mask id="l" fill="#fff">
                <use xlink:href="#j"/>
            </mask>
            <path fill="url(#k)" d="M47.53.936L.1 7.902V61.5a2.37 2.37 0 0 0 2.811 2.327l42.893-8.099a3.24 3.24 0 0 0 2.64-3.185V1.724a.796.796 0 0 0-.914-.788" mask="url(#l)"/>
        </g>
        <g transform="translate(112.248 106.504)">
            <mask id="o" fill="#fff">
                <use xlink:href="#m"/>
            </mask>
            <path fill="url(#n)" d="M1.388 1.698v51.298c0 1.346.83 2.55 2.087 3.028l18.67 7.11a2.367 2.367 0 0 0 3.21-2.213V7.902L2.245 1.055a.669.669 0 0 0-.857.643" mask="url(#o)"/>
        </g>
        <g fill="url(#p)" transform="translate(76 29)">
            <path d="M12.579 37.856l8.565 28.207 19.148-31.045zM19.162.349L.584 32.255l27.5-3.156z"/>
        </g>
        <g fill="#F0F0F8">
            <path d="M44.862.809c-10.986-1.56-23.1 1.323-30.47 9.618C8.903 16.605 6.6 24.999 5.68 33.212c-3.69 32.974 35.042 44.628 58.89 26.77C90.093 40.87 73.285 4.846 44.861.81"/>
        </g>
    </g>
</svg>
