<svg xmlns="http://www.w3.org/2000/svg" xmlns:xlink="http://www.w3.org/1999/xlink" width="116" height="40" viewBox="0 0 116 40">
    <defs>
        <path id="a" d="M.381.22h15.627V13.14H.38z"/>
    </defs>
    <g fill="none" fill-rule="evenodd">
        <path fill="#70A5FF" d="M32.742 24.466l4.12 15.45 10.997-16.464z"/>
        <path fill="#99BEFF" d="M35.73 0L25.628 17.302l14.956-1.711z"/>
        <path fill="#424242" d="M13.365 9.682l-1.91 11.945L5.777 9.682H2.864L0 27.795h3.622l1.91-11.97 5.68 11.97h2.887l2.888-18.113zM19.772 12.95a1.753 1.753 0 0 1-.595-1.342c0-.621.221-1.138.665-1.55.443-.412 1.021-.619 1.737-.619.638 0 1.155.175 1.551.525.397.35.595.781.595 1.294 0 .669-.226 1.21-.677 1.622-.451.412-1.034.618-1.748.618-.623 0-1.132-.183-1.528-.548zm-.899 2.297h3.616l-2.496 12.548h-3.616l2.496-12.548zM30.212 10.552c-.379.758-1.098 3.918-1.217 4.508l-.093.467h3.195l-.559 2.799h-3.103l-1.912 9.47h-3.638l2.612-12.992c.188-.798 1.136-5.11 1.931-6.205.72-.989 2.054-1.986 4.054-1.887.56.028 1.089.062 1.586.187.498.124.925.295 1.283.513l-1.423 2.612c-.389-.295-.871-.443-1.446-.443-.545 0-1.066.562-1.27.971M35.923 23.364a2.187 2.187 0 0 0-.047.512c0 .81.435 1.214 1.306 1.214.498 0 .995-.148 1.492-.444l.537 2.59c-.808.497-1.858.745-3.148.745-1.182 0-2.127-.31-2.834-.932-.707-.622-1.061-1.478-1.061-2.566 0-.311.038-.676.117-1.096l2.169-10.916h3.638l-.607 3.056h3.102l-.56 2.799h-3.101l-1.003 5.038zM54.862 15.247l-2.123 10.588c-.466 2.334-.993 4.277-1.794 5.735-1.23 2.24-3.227 3.242-5.373 3.242-1.198 0-2.469-.244-3.239-.54-.658-.254-1.74-.897-2.44-1.457l1.576-2.43c.513.437 1.142.779 1.888 1.028.747.248 1.94.372 2.725.12 1.1-.35 1.704-1.004 2.011-1.837.31-.84.681-2.281.914-3.417l.094-.397c-1.073.871-2.356 1.307-3.849 1.307-1.369 0-2.46-.37-3.277-1.109-.817-.738-1.225-1.784-1.225-3.136 0-.498.055-1.011.163-1.54l1.213-6.157h3.64l-1.19 5.924a4.301 4.301 0 0 0-.094.886c0 .654.175 1.152.525 1.493.35.342.875.513 1.574.513.918 0 1.68-.271 2.286-.816.607-.544 1.018-1.353 1.236-2.426l1.12-5.574h3.639zM59.22 9.682h2.912l5.68 11.945L69.72 9.682h3.622l-2.888 18.113h-2.89l-5.677-11.97-1.91 11.97h-3.622zM75.637 12.95a1.755 1.755 0 0 1-.594-1.342c0-.621.221-1.138.664-1.55.443-.412 1.023-.619 1.738-.619.638 0 1.155.175 1.551.525.397.35.595.781.595 1.294 0 .669-.226 1.21-.677 1.622-.45.412-1.034.618-1.749.618-.621 0-1.131-.183-1.528-.548zm-.897 2.297h3.615l-2.496 12.548h-3.615l2.496-12.548zM91.44 16.168c.823.738 1.235 1.792 1.235 3.16 0 .513-.054 1.019-.163 1.516l-1.399 6.951h-3.64l1.354-6.717c.063-.265.093-.552.093-.864 0-.652-.179-1.15-.536-1.492-.359-.342-.895-.513-1.61-.513-.933 0-1.706.268-2.32.805-.614.536-1.031 1.34-1.248 2.414l-1.259 6.367h-3.64l2.497-12.548h3.452l-.28 1.353c1.12-1.027 2.495-1.54 4.128-1.54 1.399 0 2.511.37 3.336 1.108"/>
        <path fill="#424242" d="M97.025 12.95a1.755 1.755 0 0 1-.595-1.342c0-.621.222-1.138.665-1.55.443-.412 1.022-.619 1.737-.619.638 0 1.155.175 1.552.525.396.35.594.781.594 1.294 0 .669-.225 1.21-.676 1.622-.451.412-1.034.618-1.75.618-.621 0-1.13-.183-1.527-.548M88.85 31.807l1.446-2.636c.42.295.925.443 1.516.443.498 0 .89-.148 1.178-.443.288-.295.493-.762.618-1.4l2.52-12.524h3.637L97.27 27.679c-.638 3.218-2.441 4.828-5.411 4.828-1.214 0-2.216-.234-3.009-.7"/>
        <g transform="translate(99.104 14.84)">
            <mask id="b" fill="#fff">
                <use xlink:href="#a"/>
            </mask>
            <path fill="#424242" d="M8.825 9.608c.56-.35.994-.836 1.306-1.458.31-.622.466-1.338.466-2.146 0-.855-.252-1.531-.758-2.03-.505-.497-1.209-.746-2.11-.746-.716 0-1.354.175-1.913.525-.56.35-.995.837-1.306 1.458-.311.622-.467 1.337-.467 2.146 0 .855.253 1.532.758 2.03.505.497 1.209.745 2.112.745.714 0 1.352-.175 1.912-.524m7.183.455l-.373 2.775a6.383 6.383 0 0 1-1.982.303c-.902 0-1.644-.179-2.228-.536a2.746 2.746 0 0 1-1.2-1.493c-1.105 1.353-2.582 2.03-4.432 2.03-.98 0-1.882-.226-2.706-.677a5.045 5.045 0 0 1-1.97-1.948C.626 9.67.38 8.67.38 7.52c0-1.383.307-2.631.921-3.743A6.815 6.815 0 0 1 3.81 1.164C4.867.534 6.033.22 7.31.22c1.927 0 3.288.63 4.082 1.888l.326-1.702h3.638l-1.632 8.14a2.187 2.187 0 0 0-.047.514c0 .404.112.703.338.897.225.195.54.292.945.292.42 0 .77-.062 1.05-.186" mask="url(#b)"/>
        </g>
    </g>
</svg>
